<svg width="225" height="41" viewBox="0 0 225 41" fill="none" xmlns="http://www.w3.org/2000/svg">
<g clip-path="url(#clip0_33810_191)">
<path d="M20.4545 41C31.7516 41 40.9091 31.8221 40.9091 20.5V6.15C40.9091 4.51892 40.2626 2.95464 39.1118 1.80129C37.961 0.647945 36.4002 0 34.7727 0L21.4773 0V8.99335C21.4773 11.0454 21.602 13.1712 22.6759 14.9178C23.4447 16.1696 24.4731 17.241 25.6914 18.0593C26.9097 18.8776 28.2894 19.4237 29.7368 19.6605L30.1285 19.7241C30.29 19.7794 30.4302 19.8839 30.5294 20.0231C30.6287 20.1622 30.6821 20.329 30.6821 20.5C30.6821 20.671 30.6287 20.8378 30.5294 20.9769C30.4302 21.1161 30.29 21.2206 30.1285 21.2759L29.7368 21.3395C27.622 21.6857 25.6691 22.6889 24.1539 24.2075C22.6386 25.7261 21.6376 27.6834 21.2921 29.8029L21.2287 30.1955C21.1735 30.3573 21.0692 30.4978 20.9304 30.5973C20.7916 30.6968 20.6252 30.7503 20.4545 30.7503C20.2839 30.7503 20.1175 30.6968 19.9787 30.5973C19.8398 30.4978 19.7355 30.3573 19.6803 30.1955L19.6169 29.8029C19.3805 28.3523 18.8356 26.9696 18.0191 25.7486C17.2026 24.5276 16.1337 23.4968 14.8848 22.7263C13.142 21.6501 11.0209 21.525 8.9734 21.525H0.0245361C0.559422 32.3705 9.50113 41 20.4545 41Z" fill="#D2D2DE"/>
<path d="M0 19.475H8.97341C11.0209 19.475 13.142 19.3499 14.8848 18.2737C16.2471 17.4325 17.3938 16.2832 18.2332 14.9178C19.307 13.1712 19.4318 11.0454 19.4318 8.99335V0H6.13636C4.5089 0 2.94809 0.647945 1.7973 1.80129C0.646508 2.95464 0 4.51892 0 6.15L0 19.475ZM47.5108 2.05C47.5108 2.59369 47.2953 3.11512 46.9117 3.49957C46.5281 3.88402 46.0078 4.1 45.4653 4.1C44.9229 4.1 44.4026 3.88402 44.019 3.49957C43.6354 3.11512 43.4199 2.59369 43.4199 2.05C43.4199 1.50631 43.6354 0.984881 44.019 0.600431C44.4026 0.215982 44.9229 0 45.4653 0C46.0078 0 46.5281 0.215982 46.9117 0.600431C47.2953 0.984881 47.5108 1.50631 47.5108 2.05ZM216.523 12.4066C222.241 12.4066 225 16.4092 225 21.0453V29.7527H219.016V22.0785C219.016 19.9773 218.251 18.243 216.057 18.243C213.864 18.243 213.132 19.9773 213.132 22.0785V29.7516H207.148V22.0785C207.148 19.9773 206.417 18.243 204.222 18.243C202.029 18.243 201.264 19.9773 201.264 22.0785V29.7516H195.281V21.0443C195.281 16.4082 198.039 12.4056 203.757 12.4056C206.882 12.4056 209.143 13.6397 210.174 15.6743C211.27 13.6397 213.664 12.4045 216.523 12.4045V12.4066ZM184.528 24.4155C186.455 24.4155 187.287 22.6474 187.287 20.5451V13.0728H193.27V21.279C193.27 26.1826 190.411 30.2529 184.528 30.2529C178.643 30.2529 175.784 26.1836 175.784 21.279V13.0728H181.768V20.5451C181.768 22.6464 182.599 24.4155 184.528 24.4155ZM166.986 30.2857C163.229 30.2857 160.802 28.9849 159.373 26.4501L163.695 24.0147C164.293 25.0818 165.19 25.6158 166.686 25.6158C167.916 25.6158 168.481 25.1822 168.481 24.6482C168.481 22.6136 159.705 24.682 159.705 18.2112C159.705 15.0747 162.364 12.5399 166.886 12.5399C170.841 12.5399 173.002 14.474 173.967 16.3426L169.645 18.8108C169.28 17.8104 168.149 17.2098 167.019 17.2098C166.154 17.2098 165.689 17.5767 165.689 18.0769C165.689 20.1453 174.465 18.244 174.465 24.5149C174.465 28.0173 171.041 30.2857 166.986 30.2857ZM146.079 37.4248H140.095V21.3794C140.095 16.275 143.918 12.5726 149.237 12.5726C154.424 12.5726 158.38 16.5425 158.38 21.3794C158.38 26.7166 154.855 30.2529 149.57 30.2529C148.339 30.2529 147.11 29.8859 146.079 29.3181V37.4248ZM149.237 24.6154C151.133 24.6154 152.396 23.1476 152.396 21.4122C152.396 19.6451 151.133 18.2101 149.237 18.2101C147.342 18.2101 146.079 19.6452 146.079 21.4133C146.079 23.1476 147.342 24.6154 149.237 24.6154ZM134.101 11.3057C132.139 11.3057 130.511 9.67087 130.511 7.70287C130.511 5.73487 132.139 4.1 134.101 4.1C136.063 4.1 137.692 5.73487 137.692 7.70287C137.692 9.67087 136.063 11.3057 134.101 11.3057ZM131.11 13.0728H137.094V29.7527H131.11V13.0728ZM119.628 30.2529C114.442 30.2529 110.486 26.2502 110.486 21.3794C110.486 16.5425 114.442 12.5399 119.628 12.5399C124.815 12.5399 128.771 16.5425 128.771 21.3794C128.771 26.2502 124.815 30.2529 119.628 30.2529ZM119.628 24.6154C121.524 24.6154 122.787 23.1476 122.787 21.4122C122.787 19.6451 121.524 18.1773 119.628 18.1773C117.733 18.1773 116.47 19.6451 116.47 21.4122C116.47 23.1476 117.733 24.6154 119.628 24.6154ZM99.1872 37.925C95.0656 37.925 92.0731 36.0902 90.5441 32.8205L95.4972 30.1524C96.029 31.2871 97.0261 32.4546 99.0869 32.4546C101.249 32.4546 102.678 31.0862 102.844 28.6846C102.047 29.3857 100.783 29.9187 98.8885 29.9187C94.2668 29.9187 90.5431 26.3497 90.5431 21.3456C90.5431 16.5097 94.5 12.5726 99.6862 12.5726C105.005 12.5726 108.828 16.276 108.828 21.3794V27.9845C108.828 33.989 104.672 37.925 99.1872 37.925ZM99.586 24.2822C101.381 24.2822 102.744 23.0471 102.744 21.2124C102.744 19.4114 101.382 18.2101 99.586 18.2101C97.8239 18.2101 96.4278 19.4114 96.4278 21.2134C96.4278 23.0481 97.8239 24.2812 99.586 24.2812V24.2822ZM80.3935 30.2529C75.2073 30.2529 71.2503 26.2502 71.2503 21.3794C71.2503 16.5425 75.2073 12.5399 80.3935 12.5399C85.5788 12.5399 89.5357 16.5425 89.5357 21.3794C89.5357 26.2502 85.5798 30.2529 80.3935 30.2529ZM80.3935 24.6154C82.2886 24.6154 83.5517 23.1476 83.5517 21.4122C83.5517 19.6451 82.2886 18.1773 80.3935 18.1773C78.4984 18.1773 77.2353 19.6451 77.2353 21.4122C77.2353 23.1476 78.4984 24.6154 80.3935 24.6154ZM60.3542 7.2365V24.0813H70.2614V29.7527H59.5227C55.7335 29.7527 54.2045 27.7508 54.2045 24.5816V7.2365H60.3542Z" fill="#D2D2DE"/>
</g>
<defs>
<clipPath id="clip0_33810_191">
<rect width="225" height="41" fill="white"/>
</clipPath>
</defs>
</svg>
